<svg width="836" height="146" viewBox="0 0 836 146" fill="none" xmlns="http://www.w3.org/2000/svg">
<path d="M10 10H136V136H10V10Z" fill="#6366F1"/>
<rect x="27" y="77" width="25" height="25" fill="white"/>
<rect x="52" y="53" width="24" height="24" fill="white"/>
<rect x="94" y="69" width="25" height="24" fill="white"/>
<rect x="70" y="93" width="24" height="25" fill="white"/>
<rect x="27" y="28" width="25" height="25" fill="white"/>
<rect x="82" y="44" width="12" height="25" fill="white"/>
<rect x="94" y="44" width="25" height="25" fill="white"/>
<rect x="52" y="28" width="24" height="25" fill="white"/>
<path d="M691.846 104.104V41.512H701.958V104.104H691.846ZM696.966 31.784C694.747 31.784 692.87 31.0587 691.334 29.608C689.883 28.1574 689.158 26.3227 689.158 24.104C689.158 21.8 689.883 19.9227 691.334 18.472C692.87 17.0214 694.747 16.296 696.966 16.296C699.185 16.296 701.019 17.0214 702.47 18.472C703.921 19.9227 704.646 21.8 704.646 24.104C704.646 26.3227 703.921 28.1574 702.47 29.608C701.019 31.0587 699.185 31.784 696.966 31.784Z" fill="black"/>
<path d="M637.421 105.896C633.069 105.896 629.101 105.128 625.517 103.592C621.933 102.056 619.117 99.8373 617.069 96.936C615.021 94.0346 613.997 90.4933 613.997 86.312C613.997 82.0453 615.021 78.5466 617.069 75.816C619.117 73 621.933 70.9093 625.517 69.544C629.101 68.0933 633.112 67.368 637.549 67.368H658.669V62.76C658.669 58.3226 657.346 54.824 654.701 52.264C652.141 49.704 648.301 48.424 643.181 48.424C638.146 48.424 634.221 49.6613 631.405 52.136C628.589 54.5253 626.669 57.768 625.645 61.864L616.173 58.792C617.197 55.2933 618.818 52.136 621.037 49.32C623.256 46.4186 626.2 44.1146 629.869 42.408C633.624 40.616 638.104 39.72 643.309 39.72C651.33 39.72 657.56 41.8106 661.997 45.992C666.434 50.088 668.653 55.8906 668.653 63.4V91.688C668.653 94.248 669.848 95.528 672.237 95.528H677.997V104.104H669.165C666.349 104.104 664.088 103.336 662.381 101.8C660.674 100.179 659.821 98.0453 659.821 95.4V94.76H658.285C657.346 96.3813 656.066 98.088 654.445 99.88C652.909 101.587 650.776 102.995 648.045 104.104C645.314 105.299 641.773 105.896 637.421 105.896ZM638.573 97.192C644.546 97.192 649.368 95.4426 653.037 91.944C656.792 88.36 658.669 83.368 658.669 76.968V75.56H637.933C633.922 75.56 630.594 76.456 627.949 78.248C625.389 79.9546 624.109 82.5573 624.109 86.056C624.109 89.5546 625.432 92.2853 628.077 94.248C630.808 96.2106 634.306 97.192 638.573 97.192Z" fill="black"/>
<path d="M591.35 105.896C588.875 105.896 586.785 105.085 585.078 103.464C583.457 101.843 582.646 99.752 582.646 97.192C582.646 94.632 583.457 92.5414 585.078 90.92C586.785 89.2987 588.875 88.488 591.35 88.488C593.91 88.488 596.001 89.2987 597.622 90.92C599.243 92.5414 600.054 94.632 600.054 97.192C600.054 99.752 599.243 101.843 597.622 103.464C596.001 105.085 593.91 105.896 591.35 105.896Z" fill="black"/>
<path d="M543.562 105.896C535.797 105.896 529.226 104.104 523.85 100.52C518.559 96.936 515.359 91.2613 514.25 83.496L523.85 81.32C524.533 85.416 525.813 88.6586 527.69 91.048C529.567 93.352 531.871 95.016 534.602 96.04C537.418 96.9786 540.405 97.448 543.562 97.448C548.255 97.448 551.967 96.5093 554.698 94.632C557.429 92.7546 558.794 90.2373 558.794 87.08C558.794 83.8373 557.471 81.576 554.826 80.296C552.266 78.9306 548.725 77.8213 544.202 76.968L538.954 76.072C534.943 75.3893 531.274 74.3226 527.946 72.872C524.618 71.4213 521.973 69.4586 520.01 66.984C518.047 64.5093 517.066 61.3946 517.066 57.64C517.066 52.008 519.242 47.6133 523.594 44.456C527.946 41.2986 533.706 39.72 540.874 39.72C547.957 39.72 553.674 41.3413 558.026 44.584C562.463 47.7413 565.322 52.2213 566.602 58.024L557.13 60.456C556.362 55.9333 554.527 52.776 551.626 50.984C548.725 49.1066 545.141 48.168 540.874 48.168C536.607 48.168 533.237 48.9786 530.762 50.6C528.287 52.136 527.05 54.44 527.05 57.512C527.05 60.4986 528.202 62.7173 530.506 64.168C532.895 65.5333 536.053 66.5573 539.978 67.24L545.226 68.136C549.663 68.904 553.631 69.9706 557.13 71.336C560.714 72.616 563.53 74.4933 565.578 76.968C567.711 79.4426 568.778 82.6853 568.778 86.696C568.778 92.84 566.474 97.576 561.866 100.904C557.343 104.232 551.242 105.896 543.562 105.896Z" fill="black"/>
<path d="M435.971 129.704V41.512H445.827V51.88H447.619C449.24 48.7226 451.843 45.9066 455.427 43.432C459.096 40.9573 464.174 39.72 470.659 39.72C476.035 39.72 480.942 41.0426 485.379 43.688C489.902 46.248 493.486 49.9173 496.131 54.696C498.862 59.4746 500.227 65.2346 500.227 71.976V73.64C500.227 80.296 498.904 86.056 496.259 90.92C493.614 95.784 490.03 99.496 485.507 102.056C481.07 104.616 476.12 105.896 470.659 105.896C466.307 105.896 462.595 105.299 459.523 104.104C456.536 102.995 454.104 101.544 452.227 99.752C450.35 97.96 448.899 96.1253 447.875 94.248H446.083V129.704H435.971ZM467.971 96.936C474.456 96.936 479.704 94.888 483.715 90.792C487.811 86.6106 489.859 80.808 489.859 73.384V72.232C489.859 64.808 487.811 59.048 483.715 54.952C479.704 50.7706 474.456 48.68 467.971 48.68C461.571 48.68 456.28 50.7706 452.099 54.952C448.003 59.048 445.955 64.808 445.955 72.232V73.384C445.955 80.808 448.003 86.6106 452.099 90.792C456.28 94.888 461.571 96.936 467.971 96.936Z" fill="black"/>
<path d="M353.596 129.704V41.512H363.452V51.88H365.244C366.865 48.7226 369.468 45.9066 373.052 43.432C376.721 40.9573 381.799 39.72 388.284 39.72C393.66 39.72 398.567 41.0426 403.004 43.688C407.527 46.248 411.111 49.9173 413.756 54.696C416.487 59.4746 417.852 65.2346 417.852 71.976V73.64C417.852 80.296 416.529 86.056 413.884 90.92C411.239 95.784 407.655 99.496 403.132 102.056C398.695 104.616 393.745 105.896 388.284 105.896C383.932 105.896 380.22 105.299 377.148 104.104C374.161 102.995 371.729 101.544 369.852 99.752C367.975 97.96 366.524 96.1253 365.5 94.248H363.708V129.704H353.596ZM385.596 96.936C392.081 96.936 397.329 94.888 401.34 90.792C405.436 86.6106 407.484 80.808 407.484 73.384V72.232C407.484 64.808 405.436 59.048 401.34 54.952C397.329 50.7706 392.081 48.68 385.596 48.68C379.196 48.68 373.905 50.7706 369.724 54.952C365.628 59.048 363.58 64.808 363.58 72.232V73.384C363.58 80.808 365.628 86.6106 369.724 90.792C373.905 94.888 379.196 96.936 385.596 96.936Z" fill="black"/>
<path d="M306.518 105.896C300.203 105.896 294.657 104.573 289.878 101.928C285.099 99.1973 281.387 95.4 278.742 90.536C276.097 85.672 274.774 80.04 274.774 73.64V72.104C274.774 65.6186 276.097 59.944 278.742 55.08C281.387 50.216 285.057 46.4613 289.75 43.816C294.443 41.0853 299.819 39.72 305.878 39.72C311.766 39.72 316.971 41 321.494 43.56C326.017 46.0346 329.558 49.6186 332.118 54.312C334.678 59.0053 335.958 64.5093 335.958 70.824V75.432H284.886C285.142 82.1733 287.318 87.464 291.414 91.304C295.51 95.0586 300.63 96.936 306.774 96.936C312.15 96.936 316.289 95.6986 319.19 93.224C322.091 90.7493 324.31 87.8053 325.846 84.392L334.55 88.616C333.27 91.2613 331.478 93.9066 329.174 96.552C326.955 99.1973 324.011 101.416 320.342 103.208C316.758 105 312.15 105.896 306.518 105.896ZM285.014 67.112H325.718C325.377 61.3093 323.371 56.7866 319.702 53.544C316.118 50.3013 311.51 48.68 305.878 48.68C300.161 48.68 295.467 50.3013 291.798 53.544C288.129 56.7866 285.867 61.3093 285.014 67.112Z" fill="black"/>
<path d="M244.261 104.104C240.677 104.104 237.904 103.123 235.941 101.16C234.064 99.1973 233.125 96.5093 233.125 93.096V50.344H214.309V41.512H233.125V19.24H243.237V41.512H263.717V50.344H243.237V91.56C243.237 94.12 244.474 95.4 246.949 95.4H260.901V104.104H244.261Z" fill="black"/>
<path d="M180.312 105.896C172.547 105.896 165.976 104.104 160.6 100.52C155.309 96.936 152.109 91.2613 151 83.496L160.6 81.32C161.283 85.416 162.563 88.6586 164.44 91.048C166.317 93.352 168.621 95.016 171.352 96.04C174.168 96.9786 177.155 97.448 180.312 97.448C185.005 97.448 188.717 96.5093 191.448 94.632C194.179 92.7546 195.544 90.2373 195.544 87.08C195.544 83.8373 194.221 81.576 191.576 80.296C189.016 78.9306 185.475 77.8213 180.952 76.968L175.704 76.072C171.693 75.3893 168.024 74.3226 164.696 72.872C161.368 71.4213 158.723 69.4586 156.76 66.984C154.797 64.5093 153.816 61.3946 153.816 57.64C153.816 52.008 155.992 47.6133 160.344 44.456C164.696 41.2986 170.456 39.72 177.624 39.72C184.707 39.72 190.424 41.3413 194.776 44.584C199.213 47.7413 202.072 52.2213 203.352 58.024L193.88 60.456C193.112 55.9333 191.277 52.776 188.376 50.984C185.475 49.1066 181.891 48.168 177.624 48.168C173.357 48.168 169.987 48.9786 167.512 50.6C165.037 52.136 163.8 54.44 163.8 57.512C163.8 60.4986 164.952 62.7173 167.256 64.168C169.645 65.5333 172.803 66.5573 176.728 67.24L181.976 68.136C186.413 68.904 190.381 69.9706 193.88 71.336C197.464 72.616 200.28 74.4933 202.328 76.968C204.461 79.4426 205.528 82.6853 205.528 86.696C205.528 92.84 203.224 97.576 198.616 100.904C194.093 104.232 187.992 105.896 180.312 105.896Z" fill="black"/>
</svg>
