<svg width="693" height="124" viewBox="0 0 693 124" fill="none" xmlns="http://www.w3.org/2000/svg">
<path d="M0 0H124V124H0V0Z" fill="#6366F1"/>
<rect x="17.0331" y="66.0884" width="24.5275" height="24.5275" fill="white"/>
<rect x="59.2752" y="81.7589" width="23.1648" height="24.5275" fill="white"/>
<path d="M64.7255 17.7145V66.0885H41.5604V42.2418H17.0331V17.7145H64.7255Z" fill="white"/>
<path d="M106.968 33.3849V81.7589H82.4398V57.9122H70.8577V33.3849H106.968Z" fill="white"/>
<path d="M679.846 93.104V30.512H689.958V93.104H679.846ZM684.966 20.784C682.747 20.784 680.87 20.0587 679.334 18.608C677.883 17.1574 677.158 15.3227 677.158 13.104C677.158 10.8 677.883 8.92269 679.334 7.47202C680.87 6.02135 682.747 5.29602 684.966 5.29602C687.185 5.29602 689.019 6.02135 690.47 7.47202C691.921 8.92269 692.646 10.8 692.646 13.104C692.646 15.3227 691.921 17.1574 690.47 18.608C689.019 20.0587 687.185 20.784 684.966 20.784Z" fill="black"/>
<path d="M625.421 94.896C621.069 94.896 617.101 94.128 613.517 92.592C609.933 91.056 607.117 88.8373 605.069 85.936C603.021 83.0346 601.997 79.4933 601.997 75.312C601.997 71.0453 603.021 67.5466 605.069 64.816C607.117 62 609.933 59.9093 613.517 58.544C617.101 57.0933 621.112 56.368 625.549 56.368H646.669V51.76C646.669 47.3226 645.346 43.824 642.701 41.264C640.141 38.704 636.301 37.424 631.181 37.424C626.146 37.424 622.221 38.6613 619.405 41.136C616.589 43.5253 614.669 46.768 613.645 50.864L604.173 47.792C605.197 44.2933 606.818 41.136 609.037 38.32C611.256 35.4186 614.2 33.1146 617.869 31.408C621.624 29.616 626.104 28.72 631.309 28.72C639.33 28.72 645.56 30.8106 649.997 34.992C654.434 39.088 656.653 44.8906 656.653 52.4V80.688C656.653 83.248 657.848 84.528 660.237 84.528H665.997V93.104H657.165C654.349 93.104 652.088 92.336 650.381 90.8C648.674 89.1786 647.821 87.0453 647.821 84.4V83.76H646.285C645.346 85.3813 644.066 87.088 642.445 88.88C640.909 90.5866 638.776 91.9946 636.045 93.104C633.314 94.2986 629.773 94.896 625.421 94.896ZM626.573 86.192C632.546 86.192 637.368 84.4426 641.037 80.944C644.792 77.36 646.669 72.368 646.669 65.968V64.56H625.933C621.922 64.56 618.594 65.456 615.949 67.248C613.389 68.9546 612.109 71.5573 612.109 75.056C612.109 78.5546 613.432 81.2853 616.077 83.248C618.808 85.2106 622.306 86.192 626.573 86.192Z" fill="black"/>
<path d="M579.35 94.896C576.875 94.896 574.785 94.0854 573.078 92.464C571.457 90.8427 570.646 88.752 570.646 86.192C570.646 83.632 571.457 81.5414 573.078 79.92C574.785 78.2987 576.875 77.488 579.35 77.488C581.91 77.488 584.001 78.2987 585.622 79.92C587.243 81.5414 588.054 83.632 588.054 86.192C588.054 88.752 587.243 90.8427 585.622 92.464C584.001 94.0854 581.91 94.896 579.35 94.896Z" fill="black"/>
<path d="M531.562 94.896C523.797 94.896 517.226 93.104 511.85 89.52C506.559 85.936 503.359 80.2613 502.25 72.496L511.85 70.32C512.533 74.416 513.813 77.6586 515.69 80.048C517.567 82.352 519.871 84.016 522.602 85.04C525.418 85.9786 528.405 86.448 531.562 86.448C536.255 86.448 539.967 85.5093 542.698 83.632C545.429 81.7546 546.794 79.2373 546.794 76.08C546.794 72.8373 545.471 70.576 542.826 69.296C540.266 67.9306 536.725 66.8213 532.202 65.968L526.954 65.072C522.943 64.3893 519.274 63.3226 515.946 61.872C512.618 60.4213 509.973 58.4586 508.01 55.984C506.047 53.5093 505.066 50.3946 505.066 46.64C505.066 41.008 507.242 36.6133 511.594 33.456C515.946 30.2986 521.706 28.72 528.874 28.72C535.957 28.72 541.674 30.3413 546.026 33.584C550.463 36.7413 553.322 41.2213 554.602 47.024L545.13 49.456C544.362 44.9333 542.527 41.776 539.626 39.984C536.725 38.1066 533.141 37.168 528.874 37.168C524.607 37.168 521.237 37.9786 518.762 39.6C516.287 41.136 515.05 43.44 515.05 46.512C515.05 49.4986 516.202 51.7173 518.506 53.168C520.895 54.5333 524.053 55.5573 527.978 56.24L533.226 57.136C537.663 57.904 541.631 58.9706 545.13 60.336C548.714 61.616 551.53 63.4933 553.578 65.968C555.711 68.4426 556.778 71.6853 556.778 75.696C556.778 81.84 554.474 86.576 549.866 89.904C545.343 93.232 539.242 94.896 531.562 94.896Z" fill="black"/>
<path d="M423.971 118.704V30.512H433.827V40.88H435.619C437.24 37.7226 439.843 34.9066 443.427 32.432C447.096 29.9573 452.174 28.72 458.659 28.72C464.035 28.72 468.942 30.0426 473.379 32.688C477.902 35.248 481.486 38.9173 484.131 43.696C486.862 48.4746 488.227 54.2346 488.227 60.976V62.64C488.227 69.296 486.904 75.056 484.259 79.92C481.614 84.784 478.03 88.496 473.507 91.056C469.07 93.616 464.12 94.896 458.659 94.896C454.307 94.896 450.595 94.2986 447.523 93.104C444.536 91.9946 442.104 90.544 440.227 88.752C438.35 86.96 436.899 85.1253 435.875 83.248H434.083V118.704H423.971ZM455.971 85.936C462.456 85.936 467.704 83.888 471.715 79.792C475.811 75.6106 477.859 69.808 477.859 62.384V61.232C477.859 53.808 475.811 48.048 471.715 43.952C467.704 39.7706 462.456 37.68 455.971 37.68C449.571 37.68 444.28 39.7706 440.099 43.952C436.003 48.048 433.955 53.808 433.955 61.232V62.384C433.955 69.808 436.003 75.6106 440.099 79.792C444.28 83.888 449.571 85.936 455.971 85.936Z" fill="black"/>
<path d="M341.596 118.704V30.512H351.452V40.88H353.244C354.865 37.7226 357.468 34.9066 361.052 32.432C364.721 29.9573 369.799 28.72 376.284 28.72C381.66 28.72 386.567 30.0426 391.004 32.688C395.527 35.248 399.111 38.9173 401.756 43.696C404.487 48.4746 405.852 54.2346 405.852 60.976V62.64C405.852 69.296 404.529 75.056 401.884 79.92C399.239 84.784 395.655 88.496 391.132 91.056C386.695 93.616 381.745 94.896 376.284 94.896C371.932 94.896 368.22 94.2986 365.148 93.104C362.161 91.9946 359.729 90.544 357.852 88.752C355.975 86.96 354.524 85.1253 353.5 83.248H351.708V118.704H341.596ZM373.596 85.936C380.081 85.936 385.329 83.888 389.34 79.792C393.436 75.6106 395.484 69.808 395.484 62.384V61.232C395.484 53.808 393.436 48.048 389.34 43.952C385.329 39.7706 380.081 37.68 373.596 37.68C367.196 37.68 361.905 39.7706 357.724 43.952C353.628 48.048 351.58 53.808 351.58 61.232V62.384C351.58 69.808 353.628 75.6106 357.724 79.792C361.905 83.888 367.196 85.936 373.596 85.936Z" fill="black"/>
<path d="M294.518 94.896C288.203 94.896 282.657 93.5733 277.878 90.928C273.099 88.1973 269.387 84.4 266.742 79.536C264.097 74.672 262.774 69.04 262.774 62.64V61.104C262.774 54.6186 264.097 48.944 266.742 44.08C269.387 39.216 273.057 35.4613 277.75 32.816C282.443 30.0853 287.819 28.72 293.878 28.72C299.766 28.72 304.971 30 309.494 32.56C314.017 35.0346 317.558 38.6186 320.118 43.312C322.678 48.0053 323.958 53.5093 323.958 59.824V64.432H272.886C273.142 71.1733 275.318 76.464 279.414 80.304C283.51 84.0586 288.63 85.936 294.774 85.936C300.15 85.936 304.289 84.6986 307.19 82.224C310.091 79.7493 312.31 76.8053 313.846 73.392L322.55 77.616C321.27 80.2613 319.478 82.9066 317.174 85.552C314.955 88.1973 312.011 90.416 308.342 92.208C304.758 94 300.15 94.896 294.518 94.896ZM273.014 56.112H313.718C313.377 50.3093 311.371 45.7866 307.702 42.544C304.118 39.3013 299.51 37.68 293.878 37.68C288.161 37.68 283.467 39.3013 279.798 42.544C276.129 45.7866 273.867 50.3093 273.014 56.112Z" fill="black"/>
<path d="M232.261 93.104C228.677 93.104 225.904 92.1227 223.941 90.16C222.064 88.1973 221.125 85.5093 221.125 82.096V39.344H202.309V30.512H221.125V8.23999H231.237V30.512H251.717V39.344H231.237V80.56C231.237 83.12 232.474 84.4 234.949 84.4H248.901V93.104H232.261Z" fill="black"/>
<path d="M168.312 94.896C160.547 94.896 153.976 93.104 148.6 89.52C143.309 85.936 140.109 80.2613 139 72.496L148.6 70.32C149.283 74.416 150.563 77.6586 152.44 80.048C154.317 82.352 156.621 84.016 159.352 85.04C162.168 85.9786 165.155 86.448 168.312 86.448C173.005 86.448 176.717 85.5093 179.448 83.632C182.179 81.7546 183.544 79.2373 183.544 76.08C183.544 72.8373 182.221 70.576 179.576 69.296C177.016 67.9306 173.475 66.8213 168.952 65.968L163.704 65.072C159.693 64.3893 156.024 63.3226 152.696 61.872C149.368 60.4213 146.723 58.4586 144.76 55.984C142.797 53.5093 141.816 50.3946 141.816 46.64C141.816 41.008 143.992 36.6133 148.344 33.456C152.696 30.2986 158.456 28.72 165.624 28.72C172.707 28.72 178.424 30.3413 182.776 33.584C187.213 36.7413 190.072 41.2213 191.352 47.024L181.88 49.456C181.112 44.9333 179.277 41.776 176.376 39.984C173.475 38.1066 169.891 37.168 165.624 37.168C161.357 37.168 157.987 37.9786 155.512 39.6C153.037 41.136 151.8 43.44 151.8 46.512C151.8 49.4986 152.952 51.7173 155.256 53.168C157.645 54.5333 160.803 55.5573 164.728 56.24L169.976 57.136C174.413 57.904 178.381 58.9706 181.88 60.336C185.464 61.616 188.28 63.4933 190.328 65.968C192.461 68.4426 193.528 71.6853 193.528 75.696C193.528 81.84 191.224 86.576 186.616 89.904C182.093 93.232 175.992 94.896 168.312 94.896Z" fill="black"/>
</svg>
